# Blender v2.78 (sub 0) OBJ File: 'casa.blend'
# www.blender.org
mtllib casa.mtl
o Cubo1_Cube
v 6.530460 0.051830 -4.217398
v 6.530460 0.051830 4.217399
v -6.530461 0.051830 4.217398
v -6.530457 0.051830 -4.217400
v 6.172900 4.141384 -3.986481
v 6.172893 4.141384 3.986486
v -6.172899 4.141384 3.986481
v -6.172896 4.141384 -3.986483
v 6.530463 4.141384 -4.217396
v 6.530456 4.141384 4.217402
v -6.530459 4.141384 -4.217399
v -6.530462 4.141384 4.217397
v 6.172900 0.232337 -3.986481
v 6.172893 0.232337 3.986486
v -6.172896 0.232337 -3.986483
v -6.172899 0.232337 3.986481
v -5.799467 3.588157 -4.217399
v -5.799467 3.588157 -3.986483
v -5.799467 0.245584 -4.217400
v -5.799467 0.245584 -3.986483
v -4.249284 0.245584 -4.217400
v -4.249284 0.245584 -3.986483
v -4.249284 3.588157 -4.217398
v -4.249284 3.588157 -3.986483
v -4.249282 0.841410 -3.986482
v -5.799467 3.588157 4.217397
v -5.799467 3.588157 3.986482
v -5.799467 0.245584 4.217398
v -5.799467 0.245584 3.986482
v -4.249284 0.245584 4.217398
v -4.249284 0.245584 3.986482
v -4.249284 3.588157 4.217397
v -4.249284 3.588157 3.986482
v -4.249282 3.427115 4.217397
v -4.249283 3.532310 3.986482
v -4.397185 3.427115 4.217398
v -4.397186 0.245584 4.217399
v -4.397186 3.588157 4.217398
v -4.397186 3.588157 3.986483
v -4.397186 3.532310 3.986483
v -4.397186 0.245584 3.986483
v -4.313920 0.387843 4.176433
v -5.864104 0.387843 4.176432
v -4.249284 0.378327 3.986482
v -5.799467 0.378327 3.986482
v -4.249284 3.485934 4.217397
v -5.799467 3.485934 4.217397
v -4.249284 3.485934 3.986482
v -5.799467 3.485934 3.986482
v -5.637206 3.588157 4.217397
v -5.637206 0.245584 4.217398
v -5.637206 3.588157 3.986482
v -5.637206 0.245584 3.986482
v -4.249278 0.245584 7.317778
v -5.799461 0.245584 7.317778
v -5.799461 3.588157 7.317776
v -4.249278 3.588157 7.317777
v -4.249277 3.427115 7.317777
v -4.397179 3.427115 7.317778
v -4.397180 0.245584 7.317779
v -4.397180 3.588157 7.317778
v -4.313915 0.387843 7.276812
v -5.864099 0.387843 7.276812
v -4.249278 3.485934 7.317777
v -5.799461 3.485934 7.317776
v -5.637200 3.588157 7.317776
v -5.637200 0.245584 7.317778
v -5.701973 0.245584 -4.217400
v -5.701973 3.588157 -4.217399
v -5.701973 0.245584 -3.986483
v -5.701973 3.588157 -3.986483
v -4.249284 0.382425 -4.217400
v -5.799467 0.382425 -4.217400
v -4.249284 0.382425 -3.986483
v -5.799467 0.382425 -3.986483
v -4.351945 3.588157 -3.986483
v -4.351944 0.841410 -3.986482
v -4.351945 0.245584 -3.986483
v -4.351945 3.588157 -4.217398
v -4.351945 0.245584 -4.217400
v -5.799467 3.471642 -4.217399
v -4.249284 3.471642 -4.217398
v -5.799467 3.471642 -3.986483
v -4.249284 3.471642 -3.986483
v -4.249284 0.245584 -4.217400
v -5.799467 0.245584 -4.217400
v -5.799467 3.588157 -4.217399
v -4.249284 3.588157 -4.217398
v -5.701973 0.245584 -4.217400
v -5.701973 3.588157 -4.217399
v -4.249284 0.382425 -4.217400
v -5.799467 0.382425 -4.217400
v -4.351945 3.588157 -4.217398
v -4.351945 0.245584 -4.217400
v -5.799467 3.471642 -4.217399
v -4.249284 3.471642 -4.217398
v -4.249284 0.245585 -6.458139
v -5.799467 0.245585 -6.458139
v -5.799467 3.588157 -6.458138
v -4.249284 3.588157 -6.458138
v -5.701973 0.245585 -6.458139
v -5.701973 3.588157 -6.458138
v -4.249284 0.382426 -6.458139
v -5.799467 0.382426 -6.458139
v -4.351945 3.588157 -6.458138
v -4.351945 0.245585 -6.458139
v -5.799467 3.471642 -6.458138
v -4.249284 3.471642 -6.458138
v 6.530460 0.051830 0.225069
v -6.530459 0.051830 0.225067
v 6.530459 4.141384 0.225071
v -6.530461 4.141384 0.225068
v 6.172896 4.141384 0.212748
v -6.172897 4.141384 0.212744
v 6.172896 0.232337 0.212748
v -6.172897 0.232337 0.212744
v -6.530459 0.051830 -0.042510
v -6.530461 4.141384 -0.042509
v -6.172897 4.141384 -0.040182
v -6.172897 0.232337 -0.040182
v 6.530460 0.051830 -0.042508
v 6.530459 4.141384 -0.042506
v 6.172896 4.141384 -0.040179
v 6.172896 0.232337 -0.040179
v 2.883435 0.232337 -3.986481
v 2.883429 0.232337 3.986485
v 2.883432 0.232337 0.212747
v 2.883433 0.232337 -0.040179
v -6.172897 0.232337 0.212744
v -6.172897 0.232337 -0.040182
v 2.883432 0.232337 0.212747
v 2.883433 0.232337 -0.040179
v -6.172897 4.146524 0.212744
v -6.172897 4.146524 -0.040182
v 2.883432 4.146524 0.212747
v 2.883433 4.146524 -0.040179
vn 0.0000 -1.0000 0.0000
vn 0.0000 0.0000 -1.0000
vn 1.0000 0.0000 0.0000
vn -0.0000 -0.0000 1.0000
vn -1.0000 -0.0000 -0.0000
vn 0.0000 1.0000 0.0000
vn 0.0000 0.9987 -0.0500
vn 0.9587 0.2464 0.1417
vn -0.9587 -0.2464 -0.1417
vn 0.0000 0.2767 0.9609
vn 0.9104 0.4137 -0.0000
vn -0.9104 -0.4137 0.0000
usemtl Material
s off
f 109//1 2//1 3//1 110//1
f 7//2 6//2 35//2 33//2 27//2 29//2 16//2
f 109//3 111//3 10//3 2//3
f 2//4 10//4 34//4 30//4 28//4 3//4
f 117//5 118//5 11//5 4//5
f 9//2 23//2 17//2 19//2 4//2 11//2
f 113//6 6//6 10//6 111//6
f 8//6 5//6 9//6 11//6
f 6//6 7//6 12//6 10//6
f 119//6 8//6 11//6 118//6
f 127//6 116//6 16//6 126//6
f 123//5 5//5 13//5 124//5
f 114//3 7//3 16//3 116//3
f 5//4 8//4 15//4 20//4 18//4 24//4 25//4 13//4
f 24//6 23//6 79//6 76//6
f 13//4 25//4 22//4 20//4 15//4 125//4
f 4//2 19//2 21//2 23//2 9//2 1//2
f 18//4 20//4 70//4 71//4
f 20//4 22//4 74//4 75//4
f 23//3 24//3 84//3 82//3
f 31//1 30//1 37//1 41//1
f 26//5 47//5 65//5 56//5
f 16//2 29//2 31//2 35//2 6//2 14//2 126//2
f 3//4 28//4 26//4 32//4 34//4 10//4 12//4
f 31//2 29//2 45//2 44//2
f 32//6 38//6 61//6 57//6
f 41//5 37//5 36//5 38//5 39//5 40//5
f 32//6 33//6 39//6 38//6
f 33//2 35//2 40//2 39//2
f 38//5 36//5 59//5 61//5
f 35//2 31//2 41//2 40//2
f 36//5 37//5 60//5 59//5
f 45//7 43//7 42//7 44//7
f 30//8 31//8 44//8 42//8
f 29//9 28//9 43//9 45//9
f 32//6 26//6 56//6 57//6
f 48//1 46//1 47//1 49//1
f 33//3 32//3 46//3 48//3
f 27//2 33//2 48//2 49//2
f 26//5 27//5 49//5 47//5
f 51//3 53//3 52//3 50//3
f 28//1 29//1 53//1 51//1
f 27//6 26//6 50//6 52//6
f 29//2 27//2 52//2 53//2
f 56//4 55//4 67//4 66//4
f 57//4 56//4 65//4 64//4
f 54//4 58//4 59//4 60//4
f 58//4 57//4 61//4 59//4
f 55//10 54//10 62//10 63//10
f 28//1 51//1 67//1 55//1
f 46//3 32//3 57//3 64//3
f 30//3 34//3 58//3 54//3
f 30//11 42//11 62//11 54//11
f 50//6 26//6 56//6 66//6
f 34//3 32//3 57//3 58//3
f 28//1 30//1 54//1 55//1
f 43//12 28//12 55//12 63//12
f 42//6 43//6 63//6 62//6
f 47//1 46//1 64//1 65//1
f 51//3 50//3 66//3 67//3
f 37//1 30//1 54//1 60//1
f 26//5 28//5 55//5 56//5
f 66//2 61//2 60//2 67//2
f 70//3 68//3 69//3 71//3
f 20//1 19//1 68//1 70//1
f 17//6 18//6 71//6 69//6
f 21//4 19//4 86//4 85//4
f 73//6 75//6 74//6 72//6
f 19//5 20//5 75//5 73//5
f 19//4 73//4 92//4 86//4
f 22//3 21//3 72//3 74//3
f 80//5 78//5 77//5 76//5 79//5
f 22//4 25//4 77//4 78//4
f 79//4 23//4 88//4 93//4
f 25//4 24//4 76//4 77//4
f 21//1 22//1 78//1 80//1
f 82//1 84//1 83//1 81//1
f 24//4 18//4 83//4 84//4
f 18//5 17//5 81//5 83//5
f 68//4 19//4 86//4 89//4
f 86//5 92//5 104//5 98//5
f 95//5 87//5 99//5 107//5
f 85//1 86//1 98//1 97//1
f 92//6 91//6 103//6 104//6
f 17//4 69//4 90//4 87//4
f 69//4 68//4 89//4 90//4
f 72//4 21//4 85//4 91//4
f 23//4 21//4 85//4 88//4
f 73//4 72//4 91//4 92//4
f 23//4 82//4 96//4 88//4
f 17//4 23//4 88//4 87//4
f 21//4 80//4 94//4 85//4
f 80//4 79//4 93//4 94//4
f 81//4 17//4 87//4 95//4
f 19//4 17//4 87//4 86//4
f 82//4 81//4 95//4 96//4
f 98//2 99//2 102//2 101//2
f 97//2 98//2 104//2 103//2
f 100//2 97//2 106//2 105//2
f 99//2 100//2 108//2 107//2
f 87//6 88//6 100//6 99//6
f 91//3 85//3 97//3 103//3
f 86//5 87//5 99//5 98//5
f 94//5 93//5 105//5 106//5
f 88//3 85//3 97//3 100//3
f 93//6 88//6 100//6 105//6
f 90//3 89//3 101//3 102//3
f 85//1 94//1 106//1 97//1
f 89//1 86//1 98//1 101//1
f 96//1 95//1 107//1 108//1
f 87//6 90//6 102//6 99//6
f 88//3 96//3 108//3 100//3
f 119//3 114//3 116//3 120//3
f 6//5 113//5 115//5 14//5
f 128//4 120//4 130//4 132//4
f 7//6 114//6 112//6 12//6
f 123//6 113//6 111//6 122//6
f 3//5 12//5 112//5 110//5
f 121//3 122//3 111//3 109//3
f 121//1 109//1 110//1 117//1
f 1//1 121//1 117//1 4//1
f 1//3 9//3 122//3 121//3
f 5//6 123//6 122//6 9//6
f 125//6 15//6 120//6 128//6
f 8//3 119//3 120//3 15//3
f 113//5 123//5 124//5 115//5
f 114//6 119//6 118//6 112//6
f 110//5 112//5 118//5 117//5
f 13//6 125//6 128//6 124//6
f 124//6 128//6 127//6 115//6
f 115//6 127//6 126//6 14//6
f 131//3 132//3 136//3 135//3
f 116//4 127//4 131//4 129//4
f 120//4 116//4 129//4 130//4
f 127//4 128//4 132//4 131//4
f 136//6 134//6 133//6 135//6
f 129//4 131//4 135//4 133//4
f 132//2 130//2 134//2 136//2
f 130//5 129//5 133//5 134//5
f 106//4 105//4 102//4 101//4
