# Blender v2.78 (sub 0) OBJ File: 'Mesas de secado de cafe.blend'
# www.blender.org
mtllib Mesas de secado de cafe.mtl
o Cube.003_Cube.002
v 2.448374 -0.222405 2.464240
v 2.448374 0.235388 2.464240
v 2.448374 -0.222405 -2.895928
v 2.448374 0.235388 -2.895928
v 6.594770 -0.222405 2.464240
v 6.594770 0.235388 2.464240
v 6.594770 -0.222405 -2.895928
v 6.594770 0.235388 -2.895928
v 2.511920 -0.178151 2.382092
v 2.511920 0.191133 2.382092
v 2.511920 -0.178151 -2.813780
v 2.511920 0.191133 -2.813780
v 6.531225 -0.178151 2.382092
v 6.531225 0.191133 2.382092
v 6.531225 -0.178151 -2.813780
v 6.531225 0.191133 -2.813780
vn 1.0000 0.0000 0.0000
vn 0.0000 0.0000 1.0000
vn -1.0000 0.0000 0.0000
vn 0.0000 0.0000 -1.0000
vn 0.0000 1.0000 0.0000
vn 0.0000 -1.0000 0.0000
vn 0.5715 -0.8206 0.0000
vn -0.5715 -0.8206 0.0000
vn 0.0000 -0.8804 0.4743
vn 0.0000 -0.8804 -0.4743
g Cube.003_Cube.002_Material.001
usemtl Material.001
s off
f 1//1 3//1 4//1 2//1
f 3//2 7//2 8//2 4//2
f 7//3 5//3 6//3 8//3
f 5//4 1//4 2//4 6//4
f 3//5 1//5 5//5 7//5
f 9//3 10//3 12//3 11//3
f 11//4 12//4 16//4 15//4
f 15//1 16//1 14//1 13//1
f 13//2 14//2 10//2 9//2
f 11//6 15//6 13//6 9//6
f 8//7 6//7 14//7 16//7
f 2//8 4//8 12//8 10//8
f 6//9 2//9 10//9 14//9
f 4//10 8//10 16//10 12//10
o Cube.002_Cube.001
v 2.504908 -2.180833 -2.598165
v 2.504908 -0.180833 -2.598165
v 2.504908 -2.180833 -2.831659
v 2.504908 -0.180833 -2.831659
v 2.722048 -2.180833 -2.598165
v 2.722048 -0.180833 -2.598165
v 2.722048 -2.180833 -2.831659
v 2.722048 -0.180833 -2.831659
v 6.358118 -2.180833 -2.598165
v 6.358118 -0.180833 -2.598165
v 6.358118 -2.180833 -2.831659
v 6.358118 -0.180833 -2.831659
v 6.575258 -2.180833 -2.598165
v 6.575258 -0.180833 -2.598165
v 6.575258 -2.180833 -2.831659
v 6.575258 -0.180833 -2.831659
v 6.358118 -2.180833 2.461424
v 6.358118 -0.180833 2.461424
v 6.358118 -2.180833 2.227931
v 6.358118 -0.180833 2.227931
v 6.575258 -2.180833 2.461424
v 6.575258 -0.180833 2.461424
v 6.575258 -2.180833 2.227931
v 6.575258 -0.180833 2.227931
v 2.504745 -2.180833 2.461424
v 2.504745 -0.180833 2.461424
v 2.504745 -2.180833 2.227931
v 2.504745 -0.180833 2.227931
v 2.721885 -2.180833 2.461424
v 2.721885 -0.180833 2.461424
v 2.721885 -2.180833 2.227931
v 2.721885 -0.180833 2.227931
vn -1.0000 0.0000 0.0000
vn 0.0000 0.0000 -1.0000
vn 1.0000 0.0000 0.0000
vn 0.0000 0.0000 1.0000
vn 0.0000 -1.0000 0.0000
vn 0.0000 1.0000 0.0000
g Cube.002_Cube.001_Material.002
usemtl Material.002
s off
f 17//11 18//11 20//11 19//11
f 19//12 20//12 24//12 23//12
f 23//13 24//13 22//13 21//13
f 21//14 22//14 18//14 17//14
f 19//15 23//15 21//15 17//15
f 24//16 20//16 18//16 22//16
f 25//11 26//11 28//11 27//11
f 27//12 28//12 32//12 31//12
f 31//13 32//13 30//13 29//13
f 29//14 30//14 26//14 25//14
f 27//15 31//15 29//15 25//15
f 32//16 28//16 26//16 30//16
f 33//11 34//11 36//11 35//11
f 35//12 36//12 40//12 39//12
f 39//13 40//13 38//13 37//13
f 37//14 38//14 34//14 33//14
f 35//15 39//15 37//15 33//15
f 40//16 36//16 34//16 38//16
f 41//11 42//11 44//11 43//11
f 43//12 44//12 48//12 47//12
f 47//13 48//13 46//13 45//13
f 45//14 46//14 42//14 41//14
f 43//15 47//15 45//15 41//15
f 48//16 44//16 42//16 46//16
o Cube.001_Cube.007
v -2.071859 -2.180833 -2.598165
v -2.071859 -0.180833 -2.598165
v -2.071859 -2.180833 -2.831659
v -2.071859 -0.180833 -2.831659
v -1.854719 -2.180833 -2.598165
v -1.854719 -0.180833 -2.598165
v -1.854719 -2.180833 -2.831659
v -1.854719 -0.180833 -2.831659
v 1.781351 -2.180833 -2.598165
v 1.781351 -0.180833 -2.598165
v 1.781351 -2.180833 -2.831659
v 1.781351 -0.180833 -2.831659
v 1.998491 -2.180833 -2.598165
v 1.998491 -0.180833 -2.598165
v 1.998491 -2.180833 -2.831659
v 1.998491 -0.180833 -2.831659
v 1.781351 -2.180833 2.461424
v 1.781351 -0.180833 2.461424
v 1.781351 -2.180833 2.227931
v 1.781351 -0.180833 2.227931
v 1.998491 -2.180833 2.461424
v 1.998491 -0.180833 2.461424
v 1.998491 -2.180833 2.227931
v 1.998491 -0.180833 2.227931
v -2.072021 -2.180833 2.461424
v -2.072021 -0.180833 2.461424
v -2.072021 -2.180833 2.227931
v -2.072021 -0.180833 2.227931
v -1.854882 -2.180833 2.461424
v -1.854882 -0.180833 2.461424
v -1.854882 -2.180833 2.227931
v -1.854882 -0.180833 2.227931
vn -1.0000 0.0000 0.0000
vn 0.0000 0.0000 -1.0000
vn 1.0000 0.0000 0.0000
vn 0.0000 0.0000 1.0000
vn 0.0000 -1.0000 0.0000
vn 0.0000 1.0000 0.0000
g Cube.001_Cube.007_Material.002
usemtl Material.002
s off
f 49//17 50//17 52//17 51//17
f 51//18 52//18 56//18 55//18
f 55//19 56//19 54//19 53//19
f 53//20 54//20 50//20 49//20
f 51//21 55//21 53//21 49//21
f 56//22 52//22 50//22 54//22
f 57//17 58//17 60//17 59//17
f 59//18 60//18 64//18 63//18
f 63//19 64//19 62//19 61//19
f 61//20 62//20 58//20 57//20
f 59//21 63//21 61//21 57//21
f 64//22 60//22 58//22 62//22
f 65//17 66//17 68//17 67//17
f 67//18 68//18 72//18 71//18
f 71//19 72//19 70//19 69//19
f 69//20 70//20 66//20 65//20
f 67//21 71//21 69//21 65//21
f 72//22 68//22 66//22 70//22
f 73//17 74//17 76//17 75//17
f 75//18 76//18 80//18 79//18
f 79//19 80//19 78//19 77//19
f 77//20 78//20 74//20 73//20
f 75//21 79//21 77//21 73//21
f 80//22 76//22 74//22 78//22
o Cube
v -2.128393 -0.222405 2.464240
v -2.128393 0.235388 2.464240
v -2.128393 -0.222405 -2.895928
v -2.128393 0.235388 -2.895928
v 2.018003 -0.222405 2.464240
v 2.018003 0.235388 2.464240
v 2.018003 -0.222405 -2.895928
v 2.018003 0.235388 -2.895928
v -2.064847 -0.178151 2.382092
v -2.064847 0.191133 2.382092
v -2.064847 -0.178151 -2.813780
v -2.064847 0.191133 -2.813780
v 1.954458 -0.178151 2.382092
v 1.954458 0.191133 2.382092
v 1.954458 -0.178151 -2.813780
v 1.954458 0.191133 -2.813780
vn 1.0000 0.0000 0.0000
vn 0.0000 0.0000 1.0000
vn -1.0000 0.0000 0.0000
vn 0.0000 0.0000 -1.0000
vn 0.0000 1.0000 0.0000
vn 0.0000 -1.0000 0.0000
vn 0.5715 -0.8206 0.0000
vn -0.5715 -0.8206 0.0000
vn 0.0000 -0.8804 0.4743
vn 0.0000 -0.8804 -0.4743
g Cube_Cube_Material.001
usemtl Material.001
s off
f 81//23 83//23 84//23 82//23
f 83//24 87//24 88//24 84//24
f 87//25 85//25 86//25 88//25
f 85//26 81//26 82//26 86//26
f 83//27 81//27 85//27 87//27
f 89//25 90//25 92//25 91//25
f 91//26 92//26 96//26 95//26
f 95//23 96//23 94//23 93//23
f 93//24 94//24 90//24 89//24
f 91//28 95//28 93//28 89//28
f 88//29 86//29 94//29 96//29
f 82//30 84//30 92//30 90//30
f 86//31 82//31 90//31 94//31
f 84//32 88//32 96//32 92//32
